# xmcd CD database file
#
# Track frame offsets:
#	150
#	18415
#	45635
#	75692
#	103537
#	128707
#	161160
#	176837
#	191190
#	231257
#	260895
#
# Disc length: 4344 seconds
#
# Revision: 3
# Processed by: cddbd v1.5.2PL0 Copyright (c) Steve Scherf et al.
# Submitted via: CDex 1.70beta2
#
DISCID=9810f60b
DTITLE=Andy Suzuki - Andy Suzuki [CD1]
DYEAR=1999
DGENRE=Jazz
TTITLE0=Take The Fifth
TTITLE1=Oranges
TTITLE2=Asp Of Fire
TTITLE3=Stanky On The Hangdown
TTITLE4=Tico Tico (for Isi)
TTITLE5=Shooting Star
TTITLE6=Minor Rorsharch
TTITLE7=Dialogue Avec Mon Ami
TTITLE8=Primodial Slime
TTITLE9=Prolix
TTITLE10=Romance Of Thorns
EXTD=YEAR: 1999
EXTT0=
EXTT1=
EXTT2=
EXTT3=
EXTT4=
EXTT5=
EXTT6=
EXTT7=
EXTT8=
EXTT9=
EXTT10=
PLAYORDER=
